<svg width="36" height="37" viewBox="0 0 36 37" fill="none" xmlns="http://www.w3.org/2000/svg">
<g id="cross">
<path id="Vector" d="M18 3.5C15.0333 3.5 12.1332 4.37973 9.66645 6.02796C7.19972 7.67618 5.27713 10.0189 4.14181 12.7597C3.0065 15.5006 2.70945 18.5166 3.28823 21.4264C3.86701 24.3361 5.29562 27.0088 7.3934 29.1066C9.49119 31.2044 12.1639 32.633 15.0737 33.2118C17.9834 33.7906 20.9994 33.4935 23.7403 32.3582C26.4812 31.2229 28.8238 29.3003 30.472 26.8336C32.1203 24.3668 33 21.4667 33 18.5C33 16.5302 32.612 14.5796 31.8582 12.7597C31.1044 10.9399 29.9995 9.28628 28.6066 7.8934C27.2137 6.50052 25.5601 5.39563 23.7403 4.64181C21.9204 3.88799 19.9698 3.5 18 3.5ZM22.815 21.185C22.9556 21.3244 23.0672 21.4903 23.1433 21.6731C23.2195 21.8559 23.2587 22.052 23.2587 22.25C23.2587 22.448 23.2195 22.6441 23.1433 22.8269C23.0672 23.0097 22.9556 23.1756 22.815 23.315C22.6756 23.4556 22.5097 23.5672 22.3269 23.6433C22.1441 23.7195 21.948 23.7587 21.75 23.7587C21.552 23.7587 21.3559 23.7195 21.1731 23.6433C20.9904 23.5672 20.8245 23.4556 20.685 23.315L18 20.615L15.315 23.315C15.1756 23.4556 15.0097 23.5672 14.8269 23.6433C14.6441 23.7195 14.448 23.7587 14.25 23.7587C14.052 23.7587 13.8559 23.7195 13.6731 23.6433C13.4904 23.5672 13.3245 23.4556 13.185 23.315C13.0444 23.1756 12.9328 23.0097 12.8567 22.8269C12.7805 22.6441 12.7413 22.448 12.7413 22.25C12.7413 22.052 12.7805 21.8559 12.8567 21.6731C12.9328 21.4903 13.0444 21.3244 13.185 21.185L15.885 18.5L13.185 15.815C12.9026 15.5325 12.7439 15.1495 12.7439 14.75C12.7439 14.3505 12.9026 13.9675 13.185 13.685C13.4675 13.4025 13.8506 13.2439 14.25 13.2439C14.6495 13.2439 15.0326 13.4025 15.315 13.685L18 16.385L20.685 13.685C20.9675 13.4025 21.3506 13.2439 21.75 13.2439C22.1495 13.2439 22.5326 13.4025 22.815 13.685C23.0975 13.9675 23.2561 14.3505 23.2561 14.75C23.2561 15.1495 23.0975 15.5325 22.815 15.815L20.115 18.5L22.815 21.185Z" fill="#E52A49"/>
</g>
</svg>
